# xmcd
#
# Track frame offsets:
#	150
#	12345
#	25565
#	36925
#	48212
#	63275
#	73472
#	85132
#	98037
#	108850
#	119725
#	132270
#	152010
#	165810
#	178002
#
# Disc length: 2612 seconds
# Revision: 1
# Processed by: cddbd v1.5.2PL0 Copyright (c) Steve Scherf et al.
# Submitted via: dBpowerAMP V12.0
#
DISCID=bb0a320f
DTITLE=Various Artist - Classic Country: 1965-1969 D2
DYEAR=1999
DGENRE=Country
TTITLE0=Tammy Wynette - Stand By Your Man
TTITLE1=David Houston - Almost Persuaded
TTITLE2=Buck Owens - Cryin' Time
TTITLE3=Sonny James - Take Good Care of Her
TTITLE4=Marty Robbins - I Walk Alone
TTITLE5=Jim Reeves - Is It Really Over?
TTITLE6=Jack Greene - There Goes My Everything
TTITLE7=Conway Twitty - Next In Line
TTITLE8=Porter Wagoner - Just Someone I Used To Know
TTITLE9=Porter Wagoner - Green, Green Grass of Home
TTITLE10=Jim Reeves - Blue Side of Lonesome
TTITLE11=Elvis Presley - Suspicious Minds
TTITLE12=Charley Pride - All I Have To Offer You Is Me
TTITLE13=Glen Campbell - Galveston
TTITLE14=Bobby Goldsboro - Honey
EXTD=
EXTT0=
EXTT1=
EXTT2=
EXTT3=
EXTT4=
EXTT5=
EXTT6=
EXTT7=
EXTT8=
EXTT9=
EXTT10=
EXTT11=
EXTT12=
EXTT13=
EXTT14=
PLAYORDER=
